<svg width="487" height="249" viewBox="0 0 487 249" fill="none" xmlns="http://www.w3.org/2000/svg">
<path fill-rule="evenodd" clip-rule="evenodd" d="M124.273 0.412109H363.304C431.415 0.412109 486.824 56.0153 486.824 124.36C486.824 192.705 431.415 248.308 363.304 248.308H124.273C56.1622 248.308 0.753906 192.705 0.753906 124.36C0.753906 56.0153 56.1622 0.412109 124.273 0.412109ZM234.018 192.549C237.019 195.705 241.461 195.549 245.396 194.731L245.435 194.751C247.262 193.265 244.665 191.383 242.186 189.586C240.699 188.509 239.254 187.461 238.83 186.548C240.203 184.874 236.143 181.074 232.983 178.115C231.656 176.873 230.488 175.78 229.946 175.054C227.698 172.606 226.794 169.517 225.884 166.41C225.281 164.349 224.676 162.279 223.673 160.383C217.497 146.044 210.425 131.822 200.508 119.684C194.135 111.617 186.862 104.393 179.586 97.1657C174.895 92.5069 170.204 87.847 165.751 82.9597C161.17 78.23 158.413 72.4037 155.651 66.5677C153.339 61.6819 151.024 56.7894 147.633 52.5279C137.365 37.3316 104.947 33.1818 100.193 54.6515C100.212 55.3139 99.9979 55.7426 99.4135 56.1712C96.7833 58.0999 94.4454 60.282 92.4777 62.9316C87.6655 69.6531 86.9251 81.0504 92.9257 87.0899C92.9344 86.9604 92.9429 86.8312 92.9514 86.7024C93.1519 83.6528 93.3394 80.8021 95.7507 78.6151C100.388 82.609 107.421 84.0312 112.798 81.0504C119.281 90.3503 121.346 101.593 123.419 112.873C125.145 122.271 126.876 131.694 131.17 140.044C131.259 140.191 131.347 140.339 131.436 140.487C133.96 144.689 136.525 148.959 139.762 152.629C140.938 154.452 143.352 156.42 145.762 158.384C148.942 160.975 152.115 163.561 152.425 165.8C152.44 166.774 152.435 167.761 152.431 168.754C152.406 174.633 152.38 180.721 156.147 185.555C158.231 189.783 153.127 194.03 149.016 193.504C146.762 193.816 144.3 193.222 141.855 192.633C138.509 191.826 135.196 191.026 132.495 192.569C131.737 193.389 130.649 193.418 129.555 193.446C128.258 193.481 126.954 193.515 126.182 194.868C126.024 195.27 125.654 195.724 125.269 196.196C124.423 197.232 123.507 198.355 124.604 199.212C124.703 199.138 124.801 199.063 124.898 198.988C126.561 197.719 128.146 196.509 130.391 197.264C130.092 198.922 131.163 199.367 132.234 199.811C132.42 199.888 132.607 199.966 132.787 200.05C132.776 200.435 132.7 200.824 132.624 201.209C132.444 202.13 132.268 203.033 132.982 203.829C133.321 203.485 133.621 203.097 133.921 202.709C134.656 201.759 135.395 200.805 136.723 200.459C139.643 204.359 142.585 202.739 146.277 200.707C150.441 198.414 155.558 195.596 162.673 199.582C159.946 199.446 157.51 199.777 155.679 202.037C155.231 202.544 154.841 203.128 155.64 203.791C159.85 201.063 161.601 202.043 163.25 202.966C164.44 203.632 165.576 204.268 167.544 203.459C168.009 203.217 168.474 202.966 168.94 202.714C172.101 201.009 175.306 199.28 179.058 199.875C176.255 200.683 175.258 202.459 174.17 204.399C173.631 205.358 173.071 206.356 172.259 207.297C171.83 207.726 171.635 208.233 172.122 208.953C177.991 208.465 180.209 206.977 183.205 204.967C184.634 204.008 186.241 202.929 188.507 201.784C191.012 200.242 193.516 201.228 195.943 202.184C198.576 203.221 201.118 204.221 203.47 201.92C204.213 201.22 205.144 201.212 206.072 201.203C206.41 201.2 206.747 201.197 207.074 201.16C206.342 197.24 202.213 197.286 198.022 197.333C193.175 197.387 188.244 197.442 188.39 191.361C192.894 188.285 192.936 182.946 192.975 177.9C192.985 176.682 192.994 175.481 193.066 174.333C196.379 176.18 199.883 177.624 203.365 179.058C206.641 180.408 209.898 181.75 212.958 183.412C216.153 188.555 221.14 195.374 227.784 194.926C227.959 194.4 228.115 193.952 228.31 193.426C228.693 193.493 229.097 193.595 229.509 193.699C231.252 194.141 233.12 194.614 234.018 192.549ZM364.231 134.099C368.078 137.937 373.295 140.093 378.735 140.093C384.175 140.093 389.393 137.937 393.24 134.099C397.086 130.262 399.247 125.057 399.247 119.63C399.247 114.203 397.086 108.998 393.24 105.161C389.393 101.323 384.175 99.1669 378.735 99.1669C376.188 99.1669 373.689 99.6396 371.358 100.537L359.601 83.375L351.407 88.9885L363.225 106.239C360.009 109.945 358.223 114.696 358.223 119.63C358.223 125.057 360.384 130.262 364.231 134.099ZM327.423 78.5226C330.301 79.9448 333.474 80.6728 336.685 80.6481C341.068 80.6144 345.324 79.1813 348.831 76.5589C352.337 73.9365 354.91 70.2626 356.171 66.0757C357.433 61.8888 357.317 57.4088 355.84 53.2924C354.364 49.176 351.605 45.6395 347.967 43.2012C345.301 41.4142 342.252 40.2767 339.064 39.8803C335.877 39.484 332.641 39.8398 329.617 40.9193C326.593 41.9987 323.865 43.7715 321.653 46.095C319.441 48.4184 317.807 51.2276 316.883 54.2962C315.958 57.3648 315.769 60.6071 316.331 63.762C316.892 66.9169 318.188 69.8962 320.115 72.46C322.041 75.0238 324.544 77.1004 327.423 78.5226ZM327.423 197.347C330.301 198.769 333.474 199.497 336.685 199.472C341.068 199.438 345.324 198.005 348.831 195.383C352.337 192.761 354.91 189.087 356.171 184.9C357.433 180.713 357.317 176.233 355.84 172.117C354.364 168 351.605 164.464 347.967 162.025C345.301 160.238 342.252 159.101 339.064 158.704C335.877 158.308 332.641 158.664 329.617 159.743C326.593 160.823 323.865 162.596 321.653 164.919C319.441 167.243 317.807 170.052 316.883 173.12C315.958 176.189 315.769 179.431 316.331 182.586C316.892 185.741 318.188 188.72 320.115 191.284C322.041 193.848 324.544 195.924 327.423 197.347ZM346.28 124.718V114.544H314.886C314.096 111.46 312.59 108.602 310.488 106.202L322.3 88.7035L313.71 83.0064L301.898 100.505C299.734 99.7226 297.452 99.3099 295.149 99.2839C289.725 99.2839 284.523 101.428 280.687 105.243C276.851 109.059 274.697 114.235 274.697 119.631C274.697 125.027 276.851 130.202 280.687 134.018C284.523 137.834 289.725 139.978 295.149 139.978C297.452 139.952 299.734 139.539 301.898 138.757L313.71 156.255L322.197 150.558L310.488 133.06C312.59 130.659 314.096 127.802 314.886 124.718H346.28Z" fill="#1C3C3C"/>
</svg>
